<svg width="176" height="98" viewBox="0 0 176 98" fill="none" xmlns="http://www.w3.org/2000/svg">
<g clip-path="url(#clip0_1631_13999)">
<path d="M115.692 80.7587C115.692 80.7587 113.526 86.715 112.132 85.6393C112.132 85.6393 113.676 77.8503 105.464 61.9336L115.692 80.7587V80.7587Z" fill="url(#paint0_radial_1631_13999)"/>
<path d="M161.379 80.5493C161.379 80.5493 170.826 83.637 171.417 89.2746C171.648 91.4957 171.357 96.2668 163.616 97.9501C163.616 97.9501 154.671 98.6871 148.293 94.0257L152.996 86.5255C152.996 86.5255 156.596 89.2846 160.918 89.3244C160.918 89.3244 164.658 89.2945 165.17 86.2168C165.651 83.2984 162.994 81.4358 161.389 80.5493H161.379Z" fill="url(#paint1_radial_1631_13999)"/>
<path d="M83.5226 26.9629C83.5226 26.9629 92.9689 30.0506 93.5605 35.6882C93.7912 37.9093 93.5004 42.6803 85.7588 44.3636C85.7588 44.3636 76.8139 45.1007 70.4362 40.4393L75.1393 32.9391C75.1393 32.9391 78.7393 35.6981 83.0613 35.738C83.0613 35.738 86.8017 35.7081 87.3131 32.6303C87.7945 29.7119 85.1371 27.8494 83.5326 26.9629H83.5226Z" fill="url(#paint2_radial_1631_13999)"/>
<path d="M32.661 26.4346H30.7156V30.7773C36.3312 33.6857 38.0059 36.9726 38.0059 36.9726C39.0087 25.9764 32.661 26.4445 32.661 26.4445V26.4346Z" fill="url(#paint3_radial_1631_13999)"/>
<path d="M10.9505 17.3608H12.8959V13.0181C7.28026 10.1097 5.6056 6.82275 5.6056 6.82275C4.60281 17.819 10.9505 17.3509 10.9505 17.3509V17.3608Z" fill="url(#paint4_radial_1631_13999)"/>
<path d="M3.17004 1.80012C3.17004 1.18012 3.73004 0.620117 4.35004 0.620117H11.72C12.4 0.620117 12.9 1.18012 12.9 1.80012V17.4001H30.6V1.80012C30.6 1.18012 31.1 0.620117 31.78 0.620117H39.15C39.77 0.620117 40.33 1.18012 40.33 1.80012V42.7901C40.33 43.4101 39.77 43.9701 39.15 43.9701H31.78C31.1 43.9701 30.6 43.4101 30.6 42.7901V26.5001H12.89V42.7901C12.89 43.4101 12.39 43.9701 11.71 43.9701H4.35004C3.73004 43.9701 3.17004 43.4101 3.17004 42.7901V1.80012Z" fill="white"/>
<path d="M50.98 1.80012C50.98 1.18012 51.54 0.620117 52.16 0.620117H59.59C60.21 0.620117 60.77 1.18012 60.77 1.80012V42.7901C60.77 43.4101 60.21 43.9701 59.59 43.9701H52.16C51.54 43.9701 50.98 43.4101 50.98 42.7901V1.80012Z" fill="white"/>
<path d="M68.93 38.0798L71.84 32.9398C72.34 32.1398 73.51 32.2598 73.95 32.5698C74.2 32.6898 78.65 35.9798 82.74 35.9798C85.22 35.9798 87.01 34.4298 87.01 32.2598C87.01 29.6598 84.84 27.6798 80.63 26.0098C75.3 23.9098 68.62 19.7598 68.62 12.3298C68.62 6.19977 73.39 0.00976562 82.92 0.00976562C89.36 0.00976562 94.31 3.28977 96.17 4.64977C96.91 5.07977 96.79 6.19977 96.54 6.62977L93.38 11.3998C92.95 12.0798 91.83 12.6398 91.27 12.2098C90.71 11.8998 86.19 8.48977 82.42 8.48977C80.19 8.48977 78.52 9.97977 78.52 11.6498C78.52 13.9398 80.38 15.6698 85.27 17.6598C90.1 19.5798 97.78 23.3598 97.78 31.7798C97.78 38.1598 92.27 44.5998 83.17 44.5998C75.12 44.5998 70.66 41.2598 69.24 39.8298C68.62 39.2098 68.43 38.9598 68.93 38.0998V38.0798Z" fill="white"/>
<path d="M105.35 1.80012C105.35 1.18012 105.85 0.620117 106.53 0.620117H121.45C129.06 0.620117 135.32 6.81012 135.32 14.3001C135.32 21.7901 129.07 28.2301 121.51 28.2301H115.01V42.7801C115.01 43.4001 114.45 43.9601 113.83 43.9601H106.52C105.84 43.9601 105.34 43.4001 105.34 42.7801V1.80012H105.35ZM120.89 19.2001C123.55 19.2001 125.78 17.0901 125.78 14.3101C125.78 11.7101 123.55 9.73012 120.89 9.73012H115.01V19.2001H120.89Z" fill="white"/>
<path d="M133.77 42.35L153.15 0.68C153.33 0.31 153.77 0 154.2 0H154.82C155.25 0 155.69 0.31 155.87 0.68L175.25 42.35C175.62 43.16 175.13 43.96 174.2 43.96H167.33C166.21 43.96 165.72 43.59 165.16 42.41L162.93 37.52H146.09L143.86 42.48C143.55 43.22 142.87 43.96 141.63 43.96H134.82C133.89 43.96 133.4 43.16 133.77 42.35V42.35ZM159.22 29.1L154.51 18.89H154.45L149.81 29.1H159.22Z" fill="white"/>
<path d="M44.0301 96.0702L63.4101 54.4002C63.5901 54.0302 64.0301 53.7202 64.4601 53.7202H65.0801C65.5101 53.7202 65.9501 54.0302 66.1301 54.4002L85.5101 96.0702C85.8801 96.8702 85.3901 97.6802 84.4601 97.6802H77.5901C76.4701 97.6802 75.9801 97.3102 75.4201 96.1302L73.1901 91.2402H56.3501L54.1201 96.1902C53.8101 96.9302 53.1301 97.6802 51.8901 97.6802H45.0801C44.1501 97.6802 43.6601 96.8702 44.0301 96.0702V96.0702ZM69.4801 82.8202L64.7701 72.6002H64.7101L60.0701 82.8202H69.4801Z" fill="white"/>
<path d="M97.8401 54.7C97.9001 54.14 98.4601 53.71 98.9601 53.71H99.9501C100.26 53.71 100.82 53.96 101 54.33L115.36 81.08H115.48L129.84 54.33C130.03 53.96 130.58 53.71 130.89 53.71H131.88C132.38 53.71 132.93 54.14 133 54.7L140 96.31C140.12 97.11 139.57 97.67 138.82 97.67H131.51C130.95 97.67 130.39 97.17 130.33 96.68L127.55 77.55H127.43L117.03 97.61C116.85 97.98 116.29 98.29 115.98 98.29H114.86C114.49 98.29 113.99 97.98 113.81 97.61L103.35 77.55H103.23L100.51 96.68C100.45 97.18 99.9501 97.67 99.3301 97.67H92.0201C91.2801 97.67 90.7201 97.11 90.8401 96.31L97.8401 54.7V54.7Z" fill="white"/>
<path d="M146.65 91.7902L149.56 86.6502C150.06 85.8402 151.23 85.9702 151.67 86.2802C151.92 86.4002 156.37 89.6802 160.46 89.6802C162.94 89.6802 164.73 88.1302 164.73 85.9702C164.73 83.3702 162.56 81.3902 158.35 79.7202C153.02 77.6102 146.34 73.4702 146.34 66.0402C146.34 59.9102 151.11 53.7202 160.64 53.7202C167.08 53.7202 172.03 57.0002 173.89 58.3602C174.63 58.7902 174.51 59.9102 174.26 60.3402L171.1 65.1102C170.67 65.7902 169.55 66.3502 168.99 65.9102C168.43 65.6002 163.91 62.2002 160.14 62.2002C157.91 62.2002 156.24 63.6802 156.24 65.3602C156.24 67.6502 158.1 69.3902 162.99 71.3702C167.82 73.2902 175.5 77.0702 175.5 85.4902C175.5 91.8702 169.99 98.3102 160.89 98.3102C152.84 98.3102 148.38 94.9602 146.96 93.5402C146.34 92.9202 146.15 92.6702 146.65 91.8102V91.7902Z" fill="white"/>
<path d="M23.5 84.9498C28.5921 84.9498 32.72 80.8218 32.72 75.7298C32.72 70.6377 28.5921 66.5098 23.5 66.5098C18.408 66.5098 14.28 70.6377 14.28 75.7298C14.28 80.8218 18.408 84.9498 23.5 84.9498Z" fill="url(#paint5_linear_1631_13999)"/>
<path d="M26.3801 75.1C27.932 75.1 29.1901 73.8419 29.1901 72.29C29.1901 70.7381 27.932 69.48 26.3801 69.48C24.8281 69.48 23.5701 70.7381 23.5701 72.29C23.5701 73.8419 24.8281 75.1 26.3801 75.1Z" fill="white"/>
<path d="M29.6 78.37C30.329 78.37 30.92 77.779 30.92 77.05C30.92 76.321 30.329 75.73 29.6 75.73C28.871 75.73 28.28 76.321 28.28 77.05C28.28 77.779 28.871 78.37 29.6 78.37Z" fill="white"/>
<path d="M42.6301 81.3599L35.9901 79.3099C35.4001 79.1399 34.8101 79.4699 34.6401 80.0599C33.6301 82.9499 31.5201 85.3899 28.8701 86.8499C27.8001 87.4399 26.6901 87.8399 25.5701 88.0799C25.4701 88.0799 25.3701 88.0799 25.2801 88.0899C23.9301 88.3599 22.5101 88.3599 21.1101 88.1499C17.4501 87.4999 14.1001 85.1399 12.1301 81.5799C11.0201 79.5799 10.5001 77.4099 10.5001 75.2899C10.6201 73.4099 11.1601 71.5099 12.1501 69.7399C14.0301 66.3999 17.1101 64.1299 20.5201 63.3499C20.6301 63.3299 20.7401 63.2999 20.8501 63.2799C20.9101 63.2699 20.9701 63.2599 21.0201 63.2499C22.4801 63.0099 23.9801 63.0199 25.3901 63.3099C25.4701 63.3299 25.5601 63.3299 25.6501 63.3299C26.7601 63.5799 27.8701 63.9799 28.9301 64.5799C31.5701 66.0599 33.6601 68.5099 34.6601 71.4099C34.8201 71.9999 35.4201 72.3299 36.0101 72.1699L42.6601 70.1699C43.3301 69.9799 43.6901 69.3299 43.4501 68.6299C41.6601 63.2299 38.6201 59.3299 33.2301 56.2999C22.4601 50.2499 8.92008 54.0499 2.87008 64.8199C-1.02992 71.7699 -0.809917 79.8299 2.74008 86.2999C2.77008 86.3499 2.79008 86.3999 2.82008 86.4499C2.83008 86.4699 2.84008 86.4899 2.85008 86.5099C2.94008 86.6599 3.03008 86.8099 3.12008 86.9599C9.24008 97.3799 22.4901 101.05 33.1201 95.1699C38.5201 92.1799 41.6001 88.2899 43.4201 82.9099C43.6701 82.2099 43.3101 81.5599 42.6401 81.3699L42.6301 81.3599Z" fill="white"/>
<path d="M17.59 93.3302C25.85 93.3302 32.79 87.6301 34.68 79.9501C34.66 79.9901 34.65 80.0301 34.63 80.0701C33.62 82.9601 31.51 85.4001 28.86 86.8601C27.79 87.4501 26.68 87.8501 25.56 88.0901C25.46 88.0901 25.36 88.0901 25.27 88.1001C23.92 88.3701 22.5 88.3702 21.1 88.1602C17.44 87.5102 14.09 85.1501 12.12 81.5901C11.01 79.5901 10.49 77.4201 10.49 75.3001C10.61 73.4201 11.15 71.5201 12.14 69.7501C14.02 66.4101 17.1 64.1401 20.51 63.3601C20.62 63.3401 20.73 63.3101 20.84 63.2901C20.9 63.2801 20.96 63.2701 21.01 63.2601C22.47 63.0201 23.97 63.0301 25.38 63.3201C25.46 63.3401 25.55 63.3401 25.64 63.3401C26.75 63.5901 27.86 63.9901 28.92 64.5901C31.56 66.0701 33.65 68.5201 34.65 71.4201C34.66 71.4601 34.68 71.4901 34.69 71.5301C32.8 63.8501 25.87 58.1401 17.6 58.1401C8.21004 58.1301 0.550042 65.4601 0.0200416 74.7001C-0.00995839 75.4401 -0.00995839 76.1701 0.0300416 76.9001C0.0400416 77.1001 0.0600416 77.3101 0.0800416 77.5101V77.5301C0.990042 86.4001 8.48004 93.3201 17.59 93.3201V93.3302Z" fill="url(#paint6_linear_1631_13999)"/>
</g>
<defs>
<radialGradient id="paint0_radial_1631_13999" cx="0" cy="0" r="1" gradientUnits="userSpaceOnUse" gradientTransform="translate(109.769 79.946) rotate(-81.3627) scale(9.24462 4.18703)">
<stop stop-color="#5D5D63" stop-opacity="0.51"/>
<stop offset="0.98" stop-color="white" stop-opacity="0.03"/>
<stop offset="0.99" stop-color="white" stop-opacity="0"/>
</radialGradient>
<radialGradient id="paint1_radial_1631_13999" cx="0" cy="0" r="1" gradientUnits="userSpaceOnUse" gradientTransform="translate(167.039 83.4909) rotate(24.4239) scale(15.405 7.20832)">
<stop stop-color="#5F5F63" stop-opacity="0.49"/>
<stop offset="0.82" stop-color="white" stop-opacity="0.03"/>
<stop offset="0.99" stop-color="white" stop-opacity="0"/>
</radialGradient>
<radialGradient id="paint2_radial_1631_13999" cx="0" cy="0" r="1" gradientUnits="userSpaceOnUse" gradientTransform="translate(89.1874 29.9048) rotate(24.4239) scale(15.405 7.20832)">
<stop stop-color="#5F5F63" stop-opacity="0.49"/>
<stop offset="0.82" stop-color="white" stop-opacity="0.03"/>
<stop offset="0.99" stop-color="white" stop-opacity="0"/>
</radialGradient>
<radialGradient id="paint3_radial_1631_13999" cx="0" cy="0" r="1" gradientUnits="userSpaceOnUse" gradientTransform="translate(31.9043 26.0996) rotate(-167.035) scale(13.2323 5.91848)">
<stop stop-color="#5D5D63" stop-opacity="0.51"/>
<stop offset="0.98" stop-color="white" stop-opacity="0.03"/>
<stop offset="0.99" stop-color="white" stop-opacity="0"/>
</radialGradient>
<radialGradient id="paint4_radial_1631_13999" cx="0" cy="0" r="1" gradientUnits="userSpaceOnUse" gradientTransform="translate(13.0886 11.9392) rotate(12.9651) scale(13.2323 5.91848)">
<stop stop-color="#5D5D63" stop-opacity="0.51"/>
<stop offset="0.98" stop-color="white" stop-opacity="0.03"/>
<stop offset="0.99" stop-color="white" stop-opacity="0"/>
</radialGradient>
<linearGradient id="paint5_linear_1631_13999" x1="14.28" y1="75.7298" x2="32.72" y2="75.7298" gradientUnits="userSpaceOnUse">
<stop stop-color="#77F5FF"/>
<stop offset="1" stop-color="#CEFBFF" stop-opacity="0.81"/>
</linearGradient>
<linearGradient id="paint6_linear_1631_13999" x1="35.38" y1="75.6302" x2="0.60004" y2="75.8202" gradientUnits="userSpaceOnUse">
<stop stop-color="#000008" stop-opacity="0.7"/>
<stop offset="0.82" stop-color="white" stop-opacity="0.03"/>
<stop offset="0.99" stop-color="white" stop-opacity="0"/>
</linearGradient>
<clipPath id="clip0_1631_13999">
<rect width="176" height="98" fill="white"/>
</clipPath>
</defs>
</svg>
