<svg xmlns="http://www.w3.org/2000/svg" width="24" height="24" fill="none" viewBox="0 0 24 24">
  <path fill="url(#a)" d="M12.95 16.988c2.809 0 5.085-2.225 5.085-4.97 0-2.745-2.276-4.97-5.085-4.97-2.808 0-5.085 2.225-5.085 4.97 0 2.745 2.277 4.97 5.085 4.97Z"/>
  <path fill="#fff" d="M14.54 11.68c.855 0 1.547-.678 1.547-1.512 0-.835-.692-1.512-1.546-1.512-.854 0-1.547.677-1.547 1.511 0 .835.693 1.512 1.547 1.512Zm1.778 1.769c.404 0 .732-.32.732-.716a.724.724 0 0 0-.732-.715.724.724 0 0 0-.732.715c0 .395.328.716.732.716Z"/>
  <path fill="#093957" d="m23.5 15.057-3.66-1.103a.596.596 0 0 0-.743.404c-.561 1.554-1.722 2.872-3.18 3.658a6.817 6.817 0 0 1-1.822.661c-.055 0-.11 0-.16.006a6.869 6.869 0 0 1-2.3.032c-2.02-.35-3.864-1.62-4.948-3.54a6.821 6.821 0 0 1-.897-3.394 6.873 6.873 0 0 1 .908-2.985c1.035-1.803 2.735-3.024 4.618-3.443.06-.011.12-.027.181-.038a6.713 6.713 0 0 1 2.504.016c.044.011.094.011.143.011.617.135 1.222.35 1.81.672 1.454.797 2.61 2.12 3.16 3.68a.603.603 0 0 0 .743.409l3.665-1.082c.369-.102.572-.451.435-.828-.985-2.905-2.664-5.013-5.63-6.643C12.389-1.71 4.927.34 1.59 6.138a11.642 11.642 0 0 0-.07 11.572c.016.027.027.054.044.08l.016.033.149.242c3.373 5.61 10.676 7.596 16.537 4.427 2.978-1.608 4.673-3.706 5.68-6.605.137-.377-.06-.727-.43-.834l-.016.005Z"/>
  <path fill="url(#b)" d="M9.698 21.502c4.556 0 8.376-3.072 9.421-7.209-.01.022-.016.043-.027.065-.561 1.554-1.723 2.872-3.181 3.658a6.818 6.818 0 0 1-1.822.662c-.055 0-.11 0-.16.005a6.872 6.872 0 0 1-2.3.032c-2.02-.35-3.863-1.619-4.947-3.54a6.822 6.822 0 0 1-.897-3.394 6.872 6.872 0 0 1 .908-2.985c1.034-1.802 2.735-3.023 4.617-3.443.06-.01.121-.027.182-.038.033-.005.066-.01.093-.016a6.713 6.713 0 0 1 2.41.032c.045.011.094.011.144.011.616.135 1.222.35 1.81.673 1.453.796 2.609 2.119 3.16 3.679.005.022.016.038.021.06C18.09 5.61 14.265 2.54 9.71 2.54 4.53 2.534.303 6.488.012 11.47c-.017.397-.017.79.005 1.188.006.108.017.22.028.328v.01c.5 4.778 4.628 8.511 9.653 8.511v-.005Z"/>
  <defs>
    <linearGradient id="a" x1="7.871" x2="18.035" y1="12.018" y2="12.018" gradientUnits="userSpaceOnUse">
      <stop stop-color="#77F5FF"/>
      <stop offset="1" stop-color="#CEFBFF" stop-opacity=".81"/>
    </linearGradient>
    <linearGradient id="b" x1="19.505" x2=".331" y1="11.97" y2="12.071" gradientUnits="userSpaceOnUse">
      <stop stop-color="#fff" stop-opacity=".7"/>
      <stop offset=".62" stop-color="#fff" stop-opacity=".03"/>
      <stop offset=".99" stop-color="#fff" stop-opacity="0"/>
    </linearGradient>
  </defs>
</svg>
