<svg width="95" height="54" viewBox="0 0 95 54" fill="none" xmlns="http://www.w3.org/2000/svg">
<path d="M1.72217 1.42706C1.72217 1.0925 2.02435 0.790314 2.35892 0.790314H6.33591C6.70285 0.790314 6.97266 1.0925 6.97266 1.42706V9.84511H16.5239V1.42706C16.5239 1.0925 16.7937 0.790314 17.1607 0.790314H21.1376C21.4722 0.790314 21.7744 1.0925 21.7744 1.42706V23.546C21.7744 23.8806 21.4722 24.1828 21.1376 24.1828H17.1607C16.7937 24.1828 16.5239 23.8806 16.5239 23.546V14.7556H6.97266V23.546C6.97266 23.8806 6.70285 24.1828 6.33591 24.1828H2.35892C2.02435 24.1828 1.72217 23.8806 1.72217 23.546V1.42706V1.42706Z" fill="#093957"/>
<path d="M27.5213 1.42706C27.5213 1.0925 27.8235 0.790314 28.1581 0.790314H32.1674C32.502 0.790314 32.8042 1.0925 32.8042 1.42706V23.546C32.8042 23.8806 32.502 24.1828 32.1674 24.1828H28.1581C27.8235 24.1828 27.5213 23.8806 27.5213 23.546V1.42706Z" fill="#093957"/>
<path d="M37.2128 21.0043L38.7831 18.2306C39.0529 17.7989 39.6843 17.8637 39.9217 18.031C40.0566 18.0957 42.4579 19.8711 44.6649 19.8711C46.0032 19.8711 46.9691 19.0347 46.9691 17.8637C46.9691 16.4607 45.7981 15.3922 43.5264 14.4911C40.6502 13.3579 37.0455 11.1185 37.0455 7.1091C37.0455 3.80124 39.6195 0.460999 44.7621 0.460999C48.2372 0.460999 50.9083 2.23095 51.912 2.96483C52.3113 3.19686 52.2466 3.80124 52.1117 4.03327L50.4065 6.60725C50.1745 6.97419 49.5701 7.27638 49.2679 7.04435C48.9657 6.87706 46.5266 5.03696 44.4923 5.03696C43.2889 5.03696 42.3878 5.841 42.3878 6.74216C42.3878 7.97789 43.3914 8.91143 46.0302 9.98527C48.6365 11.0213 52.7808 13.0611 52.7808 17.6047C52.7808 21.0474 49.8075 24.5226 44.897 24.5226C40.5531 24.5226 38.1464 22.7203 37.3801 21.9486C37.0455 21.614 36.943 21.4791 37.2128 21.0151V21.0043Z" fill="#093957"/>
<path d="M56.8603 1.42706C56.8603 1.0925 57.1301 0.790314 57.4971 0.790314H65.5482C69.6547 0.790314 73.0327 4.13055 73.0327 8.1723C73.0327 12.214 69.6601 15.6892 65.5806 15.6892H62.073V23.5406C62.073 23.8752 61.7708 24.1774 61.4363 24.1774H57.4917C57.1247 24.1774 56.8549 23.8752 56.8549 23.5406V1.42706H56.8603ZM65.246 10.8164C66.6814 10.8164 67.8847 9.67783 67.8847 8.17769C67.8847 6.77468 66.6814 5.70624 65.246 5.70624H62.073V10.8164H65.246Z" fill="#093957"/>
<path d="M72.1964 23.3084L82.6596 0.822477C82.7567 0.622818 82.9941 0.455536 83.2262 0.455536H83.5607C83.7928 0.455536 84.0302 0.622818 84.1273 0.822477L94.5851 23.3084C94.7848 23.7455 94.5204 24.1772 94.0185 24.1772H90.3114C89.707 24.1772 89.4426 23.9775 89.1404 23.3408L87.937 20.702H78.8499L77.6465 23.3785C77.4792 23.7779 77.1123 24.1772 76.4432 24.1772H72.7684C72.2665 24.1772 72.0021 23.7455 72.2018 23.3084H72.1964ZM85.9297 16.1584L83.3881 10.6489H83.3557L80.8519 16.1584H85.9297Z" fill="#093957"/>
<path d="M23.7764 52.2967L34.2342 29.8108C34.3313 29.6111 34.5687 29.4438 34.8008 29.4438H35.1353C35.3674 29.4438 35.6048 29.6111 35.7019 29.8108L46.1597 52.2967C46.3594 52.7284 46.095 53.1655 45.5931 53.1655H41.886C41.2816 53.1655 41.0172 52.9658 40.715 52.329L39.5116 49.6903H30.4245L29.2211 52.3614C29.0538 52.7607 28.6869 53.1655 28.0178 53.1655H24.343C23.8411 53.1655 23.5767 52.7284 23.7764 52.2967V52.2967ZM37.5096 45.1467L34.968 39.6318H34.9357L32.4318 45.1467H37.5096Z" fill="#093957"/>
<path d="M52.8132 29.9728C52.8456 29.6706 53.1478 29.4385 53.4176 29.4385H53.9518C54.1191 29.4385 54.4213 29.5734 54.5184 29.7731L62.2673 44.2079H62.3321L70.081 29.7731C70.1835 29.5734 70.4803 29.4385 70.6476 29.4385H71.1818C71.4516 29.4385 71.7484 29.6706 71.7862 29.9728L75.5635 52.4263C75.6283 52.858 75.3315 53.1602 74.9268 53.1602H70.9821C70.68 53.1602 70.3778 52.8904 70.3454 52.6259L68.8453 42.303H68.7805L63.1685 53.1278C63.0713 53.3275 62.7692 53.4947 62.6019 53.4947H61.9975C61.7978 53.4947 61.528 53.3275 61.4309 53.1278L55.7865 42.303H55.7217L54.254 52.6259C54.2216 52.8958 53.9518 53.1602 53.6172 53.1602H49.6726C49.2733 53.1602 48.9711 52.858 49.0359 52.4263L52.8132 29.9728V29.9728Z" fill="#093957"/>
<path d="M79.152 49.9871L80.7223 47.2135C80.9921 46.7764 81.6234 46.8465 81.8608 47.0138C81.9958 47.0786 84.3971 48.8485 86.6041 48.8485C87.9424 48.8485 88.9083 48.0121 88.9083 46.8465C88.9083 45.4435 87.7373 44.3751 85.4655 43.4739C82.5893 42.3353 78.9847 40.1013 78.9847 36.0919C78.9847 32.7841 81.5587 29.4438 86.7012 29.4438C90.1764 29.4438 92.8475 31.2138 93.8512 31.9476C94.2505 32.1797 94.1857 32.7841 94.0508 33.0161L92.3456 35.5901C92.1136 35.957 91.5092 36.2592 91.207 36.0218C90.9049 35.8545 88.4658 34.0198 86.4314 34.0198C85.2281 34.0198 84.3269 34.8184 84.3269 35.725C84.3269 36.9607 85.3306 37.8996 87.9693 38.9681C90.5757 40.0042 94.72 42.0439 94.72 46.5875C94.72 50.0303 91.7467 53.5054 86.8361 53.5054C82.4922 53.5054 80.0855 51.6977 79.3192 50.9314C78.9847 50.5969 78.8822 50.462 79.152 49.9979V49.9871Z" fill="#093957"/>
<path d="M12.698 46.3394C15.4517 46.3394 17.6841 44.1071 17.6841 41.3533C17.6841 38.5996 15.4517 36.3673 12.698 36.3673C9.94426 36.3673 7.71191 38.5996 7.71191 41.3533C7.71191 44.1071 9.94426 46.3394 12.698 46.3394Z" fill="url(#paint0_linear_1549_13999)"/>
<path d="M14.2574 41.0134C15.0949 41.0134 15.7737 40.3345 15.7737 39.4971C15.7737 38.6596 15.0949 37.9807 14.2574 37.9807C13.42 37.9807 12.7411 38.6596 12.7411 39.4971C12.7411 40.3345 13.42 41.0134 14.2574 41.0134Z" fill="white"/>
<path d="M16.0005 42.7886C16.3968 42.7886 16.7182 42.4673 16.7182 42.0709C16.7182 41.6745 16.3968 41.3532 16.0005 41.3532C15.6041 41.3532 15.2828 41.6745 15.2828 42.0709C15.2828 42.4673 15.6041 42.7886 16.0005 42.7886Z" fill="white"/>
<path d="M23.0424 44.402L19.454 43.2958C19.1356 43.2041 18.8172 43.3822 18.7255 43.7005C18.1751 45.26 17.0365 46.5821 15.6065 47.3699C15.0237 47.6883 14.4247 47.9042 13.8204 48.0337C13.7664 48.0337 13.7124 48.0337 13.6639 48.0391C12.9354 48.1848 12.1637 48.1848 11.4083 48.0714C9.42787 47.7207 7.62015 46.4472 6.5571 44.5207C5.95812 43.4361 5.67212 42.2651 5.67752 41.1158C5.74227 40.0959 6.03367 39.0706 6.56789 38.1209C7.58237 36.3131 9.24979 35.0882 11.0953 34.6673C11.1546 34.6565 11.214 34.6403 11.2734 34.6295C11.3057 34.6241 11.3381 34.6187 11.3651 34.6133C12.1583 34.4838 12.9678 34.4838 13.7286 34.6457C13.7718 34.6565 13.8204 34.6565 13.8689 34.6565C14.4733 34.7914 15.0669 35.0073 15.6443 35.331C17.0689 36.1297 18.2021 37.4571 18.7417 39.022C18.8334 39.3404 19.1518 39.5185 19.4702 39.4321L23.064 38.3475C23.4256 38.245 23.6252 37.8942 23.4903 37.5165C22.5244 34.6026 20.8786 32.4873 17.97 30.8522C12.1475 27.5821 4.83032 29.6381 1.56023 35.4552C-0.54968 39.2109 -0.425567 43.571 1.49008 47.0624C1.50627 47.0893 1.51706 47.1163 1.53325 47.1433C1.53864 47.1541 1.54404 47.1649 1.54944 47.1757C1.598 47.2566 1.64657 47.3376 1.69513 47.4185C5.003 53.0467 12.1637 55.0379 17.9107 51.8596C20.83 50.2461 22.492 48.1416 23.4795 45.233C23.6144 44.8553 23.4202 44.5046 23.0586 44.3966L23.0424 44.402Z" fill="#093957"/>
<path d="M9.50883 50.8667C13.9769 50.8667 17.7218 47.7855 18.7471 43.6359C18.7363 43.6574 18.7309 43.679 18.7201 43.7006C18.1697 45.2601 17.0311 46.5822 15.6011 47.37C15.0183 47.6884 14.4194 47.9042 13.815 48.0337C13.761 48.0337 13.7071 48.0337 13.6585 48.0391C12.93 48.1848 12.1584 48.1848 11.4029 48.0715C9.42249 47.7208 7.61477 46.4473 6.55172 44.5208C5.95274 43.4362 5.66674 42.2652 5.67214 41.1158C5.73689 40.096 6.02829 39.0707 6.56251 38.121C7.57699 36.3132 9.24441 35.0883 11.0899 34.6674C11.1493 34.6566 11.2086 34.6404 11.268 34.6296C11.3004 34.6242 11.3327 34.6188 11.3597 34.6134C12.153 34.4839 12.9624 34.4839 13.7232 34.6458C13.7664 34.6566 13.815 34.6566 13.8635 34.6566C14.4679 34.7915 15.0615 35.0074 15.6389 35.3311C17.0635 36.1298 18.1967 37.4572 18.7363 39.0221C18.7417 39.0437 18.7525 39.0599 18.7579 39.0815C17.738 34.9264 13.9877 31.8452 9.51962 31.8452C4.44181 31.8398 0.297537 35.806 0.0115394 40.8029C-0.00464915 41.2022 -0.00464915 41.5961 0.0169356 41.9954C0.0223318 42.1033 0.0331242 42.2167 0.0439165 42.3246V42.3354C0.534969 47.1272 4.58211 50.8721 9.50883 50.8721V50.8667Z" fill="url(#paint1_linear_1549_13999)"/>
<path d="M62.2835 44.2079C62.2835 44.2079 61.118 47.4348 60.3679 46.852C60.3679 46.852 61.1989 42.6322 56.7794 34.0091L62.2835 44.2079V44.2079Z" fill="url(#paint2_radial_1549_13999)"/>
<path d="M86.8686 44.0946C86.8686 44.0946 91.9518 45.7674 92.2701 48.8217C92.3943 50.025 92.2378 52.6098 88.0719 53.5217C88.0719 53.5217 83.2585 53.9211 79.8265 51.3956L82.3574 47.3323C82.3574 47.3323 84.2946 48.8271 86.6203 48.8486C86.6203 48.8486 88.6331 48.8325 88.9083 47.165C89.1673 45.5839 87.7374 44.5749 86.874 44.0946H86.8686Z" fill="url(#paint3_radial_1549_13999)"/>
<path d="M44.9726 15.0632C44.9726 15.0632 50.0558 16.736 50.3741 19.7902C50.4983 20.9936 50.3418 23.5784 46.1759 24.4903C46.1759 24.4903 41.3625 24.8896 37.9305 22.3642L40.4614 18.3009C40.4614 18.3009 42.3986 19.7956 44.7243 19.8172C44.7243 19.8172 46.7371 19.801 47.0123 18.1336C47.2713 16.5525 45.8413 15.5434 44.978 15.0632H44.9726Z" fill="url(#paint4_radial_1549_13999)"/>
<path d="M17.6031 14.7772H16.5563V17.13C19.5781 18.7056 20.4793 20.4864 20.4793 20.4864C21.0189 14.529 17.6031 14.7826 17.6031 14.7826V14.7772Z" fill="url(#paint5_radial_1549_13999)"/>
<path d="M5.92043 9.8612H6.96729V7.50847C3.94542 5.93278 3.04426 4.15204 3.04426 4.15204C2.50464 10.1094 5.92043 9.85581 5.92043 9.85581V9.8612Z" fill="url(#paint6_radial_1549_13999)"/>
<defs>
<linearGradient id="paint0_linear_1549_13999" x1="7.71731" y1="41.3533" x2="17.6841" y2="41.3533" gradientUnits="userSpaceOnUse">
<stop stop-color="#77F5FF"/>
<stop offset="1" stop-color="#CEFBFF" stop-opacity="0.81"/>
</linearGradient>
<linearGradient id="paint1_linear_1549_13999" x1="19.1248" y1="41.3047" x2="0.324519" y2="41.4018" gradientUnits="userSpaceOnUse">
<stop stop-color="white" stop-opacity="0.7"/>
<stop offset="0.62" stop-color="white" stop-opacity="0.03"/>
<stop offset="0.99" stop-color="white" stop-opacity="0"/>
</linearGradient>
<radialGradient id="paint2_radial_1549_13999" cx="0" cy="0" r="1" gradientUnits="userSpaceOnUse" gradientTransform="translate(59.6196 43.8454) rotate(-81.42) scale(5.00766 2.25345)">
<stop stop-color="white" stop-opacity="0.51"/>
<stop offset="0.98" stop-color="white" stop-opacity="0.03"/>
</radialGradient>
<radialGradient id="paint3_radial_1549_13999" cx="0" cy="0" r="1" gradientUnits="userSpaceOnUse" gradientTransform="translate(89.9117 45.6887) rotate(24.57) scale(8.29934 3.90069)">
<stop stop-color="white" stop-opacity="0.49"/>
<stop offset="0.99" stop-color="white" stop-opacity="0"/>
</radialGradient>
<radialGradient id="paint4_radial_1549_13999" cx="0" cy="0" r="1" gradientUnits="userSpaceOnUse" gradientTransform="translate(48.0184 16.6574) rotate(24.57) scale(8.29933 3.90069)">
<stop stop-color="white" stop-opacity="0.49"/>
<stop offset="0.99" stop-color="white" stop-opacity="0"/>
</radialGradient>
<radialGradient id="paint5_radial_1549_13999" cx="0" cy="0" r="1" gradientUnits="userSpaceOnUse" gradientTransform="translate(17.1966 14.595) rotate(-166.95) scale(7.12297 3.20533)">
<stop stop-color="white" stop-opacity="0.7"/>
<stop offset="1" stop-color="white" stop-opacity="0"/>
</radialGradient>
<radialGradient id="paint6_radial_1549_13999" cx="0" cy="0" r="1" gradientUnits="userSpaceOnUse" gradientTransform="translate(7.01553 7.14234) rotate(13.05) scale(7.12297 3.20533)">
<stop stop-color="white" stop-opacity="0.7"/>
<stop offset="1" stop-color="white" stop-opacity="0"/>
</radialGradient>
</defs>
</svg>
