<svg width="100" height="100" viewBox="0 0 100 100" fill="none" xmlns="http://www.w3.org/2000/svg">
<path fill-rule="evenodd" clip-rule="evenodd" d="M61.8559 47.2425C61.9592 47.1943 62.0776 47.189 62.1848 47.2278L94.8159 59.0132C94.9232 59.0519 95.0107 59.1316 95.059 59.2346C95.1074 59.3376 95.1127 59.4555 95.0739 59.5624L86.473 83.2124C86.4342 83.3193 86.3542 83.4065 86.2509 83.4547C86.1475 83.5029 86.0292 83.5082 85.9219 83.4694L74.8904 79.4851L74.8887 79.4845C74.4458 79.3254 73.9689 79.2841 73.5051 79.3649C73.0433 79.4454 72.6104 79.644 72.2488 79.9414L67.8552 83.506C67.7958 83.552 67.7257 83.5826 67.6514 83.5947C67.5755 83.607 67.4977 83.5998 67.4254 83.5737C67.3531 83.5476 67.2888 83.5035 67.2385 83.4456C67.1892 83.3888 67.155 83.3206 67.139 83.2472L66.0572 77.7052C65.9708 77.246 65.7661 76.8171 65.4632 76.4604C65.1591 76.1023 64.7664 75.8295 64.3241 75.6689L53.2908 71.684C53.1835 71.6453 53.0961 71.5656 53.0477 71.4626C52.9993 71.3596 52.994 71.2417 53.0329 71.1348L61.6337 47.4848C61.6726 47.3779 61.7525 47.2907 61.8559 47.2425ZM73.701 81.7121L72.9766 80.8254L73.7089 81.7057C73.7639 81.6602 73.8299 81.6299 73.9002 81.6176C73.9703 81.6054 74.0432 81.6118 74.1102 81.6358L85.14 85.6194C85.8195 85.8648 86.569 85.8312 87.2235 85.5259C87.8781 85.2206 88.3842 84.6687 88.6305 83.9916L97.2313 60.3416C97.4775 59.6645 97.4438 58.9176 97.1375 58.2653C96.8311 57.6129 96.2773 57.1086 95.5978 56.8632L62.9667 45.0778C62.2873 44.8324 61.5378 44.866 60.8832 45.1713C60.2286 45.4765 59.7225 46.0285 59.4763 46.7056L50.8755 70.3556C50.6292 71.0327 50.663 71.7796 50.9693 72.4319C51.2756 73.0843 51.8294 73.5886 52.5089 73.834L63.5395 77.8179C63.6064 77.8424 63.6657 77.8836 63.7116 77.9378C63.7578 77.9921 63.7889 78.0575 63.8019 78.1275L64.888 83.6923L64.8907 83.7051C64.9855 84.1628 65.1964 84.5886 65.5032 84.942C65.8101 85.2954 66.2027 85.5645 66.6435 85.7237C67.0844 85.8829 67.5588 85.9269 68.0216 85.8515C68.4844 85.7761 68.9201 85.5839 69.2871 85.2931L73.701 81.7121ZM68.1168 59.8599C68.3327 59.2662 68.9907 58.9593 69.5865 59.1745L81.4523 63.4601C82.0481 63.6753 82.356 64.331 82.1401 64.9247C81.9242 65.5184 81.2662 65.8253 80.6704 65.6101L68.8046 61.3245C68.2088 61.1093 67.9009 60.4536 68.1168 59.8599ZM65.9666 65.7726C66.1825 65.1789 66.8405 64.872 67.4363 65.0872L79.3021 69.3728C79.8979 69.5879 80.2058 70.2437 79.9899 70.8374C79.774 71.4311 79.116 71.7379 78.5202 71.5228L66.6544 67.2372C66.0586 67.022 65.7507 66.3663 65.9666 65.7726Z" fill="#55C9D3"/>
<path fill-rule="evenodd" clip-rule="evenodd" d="M5.92723 27.1049C5.9839 26.9744 6.09024 26.8717 6.22287 26.8194L46.5628 10.9072C46.6954 10.8549 46.8435 10.8572 46.9744 10.9137C47.1053 10.9702 47.2083 11.0761 47.2608 11.2083L58.8733 40.4453C58.9258 40.5775 58.9235 40.725 58.8668 40.8555C58.8102 40.9859 58.7038 41.0886 58.5712 41.1409L44.9336 46.5203L44.9315 46.5212C44.3846 46.7379 43.904 47.093 43.5371 47.5516C43.1717 48.0082 42.9317 48.5516 42.8405 49.1285L41.6918 56.0925C41.6745 56.1847 41.6343 56.2711 41.5748 56.3438C41.514 56.418 41.4352 56.4755 41.3459 56.5107C41.2565 56.546 41.1596 56.5578 41.0644 56.5451C40.971 56.5327 40.8823 56.4971 40.8064 56.4416L35.1862 52.1478C34.7236 51.7893 34.1754 51.5568 33.5953 51.4731C33.0129 51.389 32.4186 51.4579 31.8711 51.6729L18.2313 57.0531C18.0987 57.1054 17.9506 57.1031 17.8197 57.0467C17.6888 56.9902 17.5858 56.8842 17.5333 56.752L5.92073 27.515C5.86823 27.3829 5.87057 27.2353 5.92723 27.1049ZM45.6719 49.5867L44.2566 49.3549L45.6739 49.5742C45.6876 49.4862 45.7241 49.4034 45.7798 49.3338C45.8352 49.2645 45.9088 49.2103 45.9914 49.1774L59.6269 43.7988C60.4669 43.4675 61.1404 42.8172 61.4993 41.991C61.8581 41.1648 61.8729 40.2303 61.5405 39.3932L49.9279 10.1563C49.5954 9.31917 48.9429 8.64798 48.1138 8.29036C47.2847 7.93273 46.3471 7.91796 45.5071 8.2493L5.16718 24.1615C4.32719 24.4929 3.65369 25.1432 3.29483 25.9694C2.93597 26.7956 2.92114 27.73 3.25363 28.5671L14.8662 57.8041C15.1987 58.6412 15.8512 59.3124 16.6803 59.67C17.5093 60.0276 18.447 60.0424 19.287 59.711L32.9235 54.3321C33.0063 54.2997 33.0962 54.2894 33.1842 54.3021C33.2726 54.3149 33.3561 54.3505 33.4264 54.4052L39.0696 58.7168L39.0828 58.7266C39.552 59.0767 40.1034 59.3011 40.6844 59.3785C41.2654 59.4559 41.8566 59.3836 42.4016 59.1686C42.9466 58.9537 43.4272 58.6031 43.7977 58.1504C44.1681 57.6978 44.4161 57.1581 44.5178 56.5828L45.6719 49.5867ZM22.2774 33.7446C21.9859 33.0107 22.3466 32.1802 23.0831 31.8897L37.7522 26.1034C38.4887 25.8129 39.3221 26.1724 39.6136 26.9063C39.9051 27.6403 39.5444 28.4708 38.8079 28.7613L24.1388 34.5476C23.4023 34.8381 22.569 34.4786 22.2774 33.7446ZM25.1806 41.0537C24.8891 40.3197 25.2498 39.4892 25.9863 39.1987L40.6553 33.4125C41.3918 33.1219 42.2252 33.4814 42.5167 34.2154C42.8083 34.9493 42.4475 35.7798 41.711 36.0704L27.042 41.8566C26.3055 42.1471 25.4721 41.7877 25.1806 41.0537Z" fill="#093957"/>
</svg>
