<svg width="100" height="100" viewBox="0 0 100 100" fill="none" xmlns="http://www.w3.org/2000/svg">
<g clip-path="url(#clip0_1645_14058)">
<g clip-path="url(#clip1_1645_14058)">
<path d="M22.7579 60.1883C30.0621 58.8071 34.132 49.0382 32.0264 37.9454C29.9209 26.8526 22.5531 19.2465 15.2488 20.6277C7.9445 22.0089 3.87464 31.7778 5.98019 42.8706C8.08573 53.9634 15.4536 61.5695 22.7579 60.1883ZM15.8924 24.0186C20.3588 23.1741 25.2675 27.948 27.6493 34.9092C26.8806 34.5727 26.0345 34.452 25.2021 34.5602C24.3697 34.6684 23.5827 35.0013 22.926 35.5231C22.2693 36.0449 21.7677 36.7358 21.4755 37.5212C21.1832 38.3066 21.1114 39.1567 21.2676 39.9799C21.4239 40.803 21.8023 41.568 22.3621 42.1923C22.9219 42.8165 23.6419 43.2764 24.4443 43.5223C25.2468 43.7682 26.1012 43.7907 26.9156 43.5875C27.7299 43.3843 28.4732 42.9631 29.0653 42.3692C29.3997 49.7176 26.5806 55.9528 22.1142 56.7974C16.8959 57.7842 11.0639 51.1124 9.37753 42.2282C7.6912 33.344 10.6741 25.0054 15.8924 24.0186Z" fill="#093957"/>
<path d="M45.4068 55.9055C52.7111 54.5243 56.7809 44.7554 54.6754 33.6627C52.5699 22.5699 45.202 14.9638 37.8977 16.345C36.2759 16.7129 34.7597 17.446 33.4652 18.4883C32.1707 19.5306 31.1321 20.8545 30.4287 22.3588C31.2989 23.3858 32.0916 24.4758 32.8003 25.6197C33.1724 24.2304 33.8958 22.9598 34.901 21.9295C35.9063 20.8993 37.1598 20.1439 38.5414 19.7359C43.0077 18.8913 47.9165 23.6652 50.2983 30.6265C49.5296 30.2899 48.6834 30.1692 47.851 30.2774C47.0187 30.3856 46.2317 30.7186 45.5749 31.2404C44.9182 31.7622 44.4167 32.453 44.1244 33.2384C43.8322 34.0238 43.7603 34.8739 43.9166 35.6971C44.0728 36.5203 44.4513 37.2852 45.0111 37.9095C45.5709 38.5338 46.2908 38.9936 47.0933 39.2395C47.8957 39.4854 48.7502 39.508 49.5645 39.3048C50.3789 39.1016 51.1222 38.6803 51.7143 38.0865C52.0486 45.4349 49.2295 51.6701 44.7632 52.5146C43.3278 52.6393 41.8843 52.3939 40.5712 51.8021C39.258 51.2102 38.1192 50.2917 37.2637 49.1345C37.0233 50.4579 36.685 51.7617 36.2515 53.0352C37.4574 54.1785 38.9092 55.0315 40.496 55.529C42.0828 56.0265 43.7625 56.1553 45.4068 55.9055Z" fill="#093957"/>
</g>
<g clip-path="url(#clip2_1645_14058)">
<path d="M86.9796 54.7731C81.2349 53.2367 74.9028 58.8664 72.5607 67.5908C70.2186 76.3151 72.8821 84.3506 78.6269 85.8869C84.3716 87.4233 90.7036 81.7936 93.0458 73.0693C95.3879 64.345 92.7243 56.3095 86.9796 54.7731ZM79.3428 83.22C75.8301 82.2806 73.9534 77.1386 74.6589 71.2961C75.0958 71.8051 75.6636 72.1854 76.3012 72.3959C76.9387 72.6065 77.6217 72.6393 78.2766 72.4909C78.9314 72.3424 79.5332 72.0184 80.0171 71.5537C80.501 71.0889 80.8486 70.5012 81.0224 69.8538C81.1962 69.2063 81.1896 68.5239 81.0034 67.8799C80.8171 67.236 80.4583 66.655 79.9655 66.1996C79.4727 65.7443 78.8648 65.4319 78.2072 65.296C77.5496 65.1602 76.8673 65.2062 76.234 65.4289C78.5498 60.0171 82.7509 56.5006 86.2637 57.44C90.3678 58.5376 92.2496 65.3674 90.3738 72.3547C88.498 79.342 83.4469 84.3177 79.3428 83.22Z" fill="#55C9D3"/>
<path d="M69.1665 50.0091C63.4218 48.4728 57.0898 54.1025 54.7477 62.8268C52.4055 71.5511 55.0691 79.5866 60.8138 81.123C62.1107 81.42 63.4584 81.4172 64.754 81.1147C66.0496 80.8122 67.2588 80.2181 68.2891 79.3777C68.0193 78.336 67.8272 77.2757 67.7145 76.2056C66.9629 77.0779 65.9995 77.7429 64.9166 78.1369C63.8336 78.531 62.6674 78.6409 61.5297 78.4561C58.017 77.5166 56.1403 72.3746 56.8458 66.5321C57.2827 67.0411 57.8506 67.4214 58.4881 67.6319C59.1256 67.8425 59.8086 67.8753 60.4635 67.7269C61.1183 67.5785 61.7202 67.2544 62.2041 66.7897C62.6879 66.325 63.0355 65.7372 63.2093 65.0898C63.3831 64.4424 63.3766 63.7599 63.1903 63.1159C63.004 62.472 62.6452 61.891 62.1524 61.4357C61.6597 60.9803 61.0517 60.6679 60.3941 60.5321C59.7365 60.3962 59.0543 60.4422 58.4209 60.6649C60.7367 55.2531 64.9379 51.7366 68.4506 52.676C69.5285 53.0837 70.4833 53.7609 71.2238 54.6426C71.9643 55.5243 72.4655 56.581 72.6794 57.7115C73.3131 56.8411 74.0105 56.0187 74.7661 55.2511C74.2948 54.0092 73.5452 52.8912 72.5747 51.9827C71.6042 51.0741 70.4385 50.3991 69.1665 50.0091Z" fill="#55C9D3"/>
</g>
</g>
<defs>
<clipPath id="clip0_1645_14058">
<rect width="100" height="100" fill="white"/>
</clipPath>
<clipPath id="clip1_1645_14058">
<rect width="55.3207" height="55.2232" fill="white" transform="matrix(0.982587 -0.185802 0.186483 0.982458 -2 16.2787)"/>
</clipPath>
<clipPath id="clip2_1645_14058">
<rect width="44.2539" height="44.1813" fill="white" transform="matrix(-0.966048 -0.258362 0.259277 -0.965803 89.5448 95)"/>
</clipPath>
</defs>
</svg>
